<?xml version="1.0" encoding="iso-8859-1"?>
<!-- Generator: Adobe Illustrator 19.0.0, SVG Export Plug-In . SVG Version: 6.00 Build 0)  -->
<svg version="1.1" id="Layer_1" xmlns="http://www.w3.org/2000/svg" xmlns:xlink="http://www.w3.org/1999/xlink" x="0px" y="0px"
	 viewBox="0 0 512.441 512.441" style="enable-background:new 0 0 512.441 512.441;" xml:space="preserve">
<g transform="translate(1 1)">
	<g>
		<g>
			<path d="M127.221,247.497l-88.276,52.966c-2.648,1.766-4.414,4.414-4.414,7.945v105.931c0,5.297,3.531,8.828,8.828,8.828
				s8.828-3.531,8.828-8.828V313.703l84.745-51.2c3.531-2.648,5.297-7.945,2.648-12.359
				C136.931,246.614,131.635,244.848,127.221,247.497z"/>
			<path d="M506.807,282.807l-119.172-68.099V78.89c0-3.531-1.766-6.179-4.414-7.945L259.635,0.324
				c-2.648-1.766-6.179-1.766-8.828,0L127.221,70.945c-2.648,1.766-4.414,4.414-4.414,7.945v135.819L3.635,282.807
				c-2.648,1.766-4.414,4.414-4.414,7.945v141.241c0,3.531,1.766,6.179,4.414,7.945l123.586,70.621
				c1.766,0.883,2.648,0.883,4.414,0.883c0.883,0,2.648,0,3.531-0.883l120.055-51.452l120.055,51.452
				c0.883,0.883,2.648,0.883,3.531,0.883c1.766,0,2.648,0,4.414-0.883l123.586-70.621c2.648-1.766,4.414-4.414,4.414-7.945V290.752
				C511.221,287.221,509.455,284.572,506.807,282.807z M255.221,18.862l114.759,65.324v130.522L312.6,247.497l-57.379,32.662
				l-57.379-32.662l-57.379-32.788V84.186L255.221,18.862z M132.517,492.903L16.876,426.697V296.048l114.1-65.827l115.418,65.953
				v147.295L132.517,492.903z M492.683,425.814l-114.759,66.207l-113.876-48.552V296.174l114.981-65.704l113.653,64.695V425.814z"/>
			<path d="M374.393,247.497l-88.276,52.966c-2.648,1.766-4.414,4.414-4.414,7.945v114.759c0,5.297,3.531,8.828,8.828,8.828
				c5.297,0,8.828-3.531,8.828-8.828V313.703l84.745-51.2c3.531-2.648,5.297-7.945,2.648-12.359
				C384.103,246.614,378.807,244.848,374.393,247.497z"/>
			<path d="M166.945,211.303c5.297,0,8.828-3.531,8.828-8.828V101.841l83.862-50.317c4.414-2.648,5.297-7.945,3.531-12.359
				c-2.648-4.414-7.945-5.297-12.359-3.531L162.531,88.6c-2.648,1.766-4.414,4.414-4.414,7.945v105.931
				C158.117,207.772,161.648,211.303,166.945,211.303z"/>
		</g>
	</g>
</g>
<g>
</g>
<g>
</g>
<g>
</g>
<g>
</g>
<g>
</g>
<g>
</g>
<g>
</g>
<g>
</g>
<g>
</g>
<g>
</g>
<g>
</g>
<g>
</g>
<g>
</g>
<g>
</g>
<g>
</g>
</svg>
